<?xml version="1.0" standalone="no"?>
<!DOCTYPE svg PUBLIC "-//W3C//DTD SVG 20010904//EN"
 "http://www.w3.org/TR/2001/REC-SVG-20010904/DTD/svg10.dtd">
<svg version="1.0" xmlns="http://www.w3.org/2000/svg"
 width="500.000000pt" height="500.000000pt" viewBox="0 0 500.000000 500.000000"
 preserveAspectRatio="xMidYMid meet">

<g transform="translate(0.000000,500.000000) scale(0.100000,-0.100000)"
fill="#ef4444" stroke="none">
<path d="M3430 2968 l-1 -313 -21 40 c-59 115 -185 185 -333 185 -106 0 -216
-42 -274 -104 -14 -14 -28 -26 -33 -26 -4 0 -8 25 -8 55 l0 55 -60 0 -60 0 0
115 0 115 -105 0 -105 0 0 -116 0 -116 -42 2 c-24 1 -87 1 -140 1 -98 -1 -98
-1 -98 -26 0 -28 -12 -32 -30 -10 -6 8 -37 24 -68 36 -140 52 -304 -8 -370
-137 l-18 -36 -18 46 c-35 92 -148 153 -267 144 -48 -3 -69 -11 -111 -41 l-53
-37 -3 30 -3 30 -105 0 -104 0 0 -305 0 -305 105 0 105 0 0 179 c0 99 4 190 9
203 14 37 60 77 97 84 47 9 85 -7 112 -46 21 -31 22 -42 22 -226 l0 -194 105
0 105 0 0 87 0 87 29 -45 c66 -102 138 -140 267 -140 82 0 91 2 188 49 13 7 0
-92 -16 -118 -48 -79 -192 -89 -271 -20 l-33 28 -82 -38 c-45 -21 -82 -42 -82
-46 0 -18 55 -85 90 -109 80 -55 227 -77 348 -51 109 23 173 65 220 146 l27
45 5 290 5 290 35 0 35 0 5 -165 c5 -145 8 -170 27 -207 23 -42 60 -75 101
-88 40 -12 148 -6 190 10 l41 17 -15 46 c-7 26 -14 49 -14 51 0 2 20 -15 45
-38 57 -53 122 -81 205 -90 181 -18 332 47 394 171 l26 52 0 -107 0 -107 105
0 105 0 0 120 c0 66 3 120 8 120 4 0 61 -54 127 -120 l120 -120 130 0 130 0
-160 160 -160 160 145 145 145 145 -135 0 -135 0 -107 -107 -108 -108 0 318 0
317 -105 0 -105 0 0 -312z m-690 -262 c0 -2 -7 -23 -15 -46 -17 -49 -20 -139
-5 -190 10 -36 2 -50 -32 -50 -40 0 -48 25 -48 161 l0 129 50 0 c28 0 50 -2
50 -4z m-653 -26 c116 -70 59 -270 -77 -270 -112 0 -185 120 -130 217 12 22
34 47 48 56 38 23 119 22 159 -3z m1068 0 c45 -28 69 -81 62 -138 -6 -53 -31
-91 -78 -114 -125 -64 -259 77 -194 203 35 66 142 91 210 49z"/>
<path d="M420 2745 l0 -495 280 0 280 0 0 100 0 100 -170 0 -170 0 0 100 0
100 165 0 165 0 0 95 0 95 -165 0 -165 0 0 100 0 100 170 0 170 0 0 100 0 100
-280 0 -280 0 0 -495z"/>
<path d="M4366 2479 c-76 -60 -72 -172 8 -224 32 -21 110 -21 141 -1 81 53 83
177 3 226 -45 27 -117 27 -152 -1z"/>
</g>
</svg>
